Coordinates
version=1
nRows=14
nColumns=36
inDegrees=yes

Units are S.I. units (second, meters, Newtons, ...)
If the header above contains a line with 'inDegrees', this indicates whether rotational values are in degrees (yes) or radians (no).

endheader
time	pelvis_tilt	pelvis_list	pelvis_rotation	pelvis_tx	pelvis_ty	pelvis_tz	hip_flexion_r	hip_adduction_r	hip_rotation_r	knee_angle_r	knee_angle_r_beta	ankle_angle_r	subtalar_angle_r	mtp_angle_r	hip_flexion_l	hip_adduction_l	hip_rotation_l	knee_angle_l	knee_angle_l_beta	ankle_angle_l	subtalar_angle_l	mtp_angle_l	lumbar_extension	lumbar_bending	lumbar_rotation	arm_flex_r	arm_add_r	arm_rot_r	elbow_flex_r	pro_sup_r	arm_flex_l	arm_add_l	arm_rot_l	elbow_flex_l	pro_sup_l
      0.96250000	    -13.52399145	     -0.05412443	      0.56513288	     -0.19548493	      1.22432679	     -0.07767998	     15.68372860	     -3.66322282	     -7.96663933	      4.47250377	      0.07805992	    -12.96725332	      3.66468106	     -7.49999987	     16.32357613	     -3.54712134	     -2.08678616	      6.59897321	      0.11517381	    -16.50098362	      9.38902808	     -7.49999987	     -4.58222340	     -0.87644380	     -4.34789996	     98.10265135	    -19.90856749	     35.31300262	     95.78864536	     85.61089942	     97.94979581	    -14.28968976	     39.17536238	     89.89807301	     76.81458000
      0.96666670	    -13.23864809	     -0.18414980	      0.42506496	     -0.19035921	      1.21982285	     -0.07413782	     16.32778208	     -3.17071010	     -7.54198478	      4.94440981	      0.08629623	    -12.89160707	      2.47774644	     -7.49999987	     15.91555404	     -3.71781165	     -3.05717167	      5.38711054	      0.09402282	    -16.35938572	      9.40649489	     -7.49999987	     -4.58964072	     -0.90697055	     -4.32863577	     97.67352010	    -19.97155521	     36.37136012	     95.08580414	     82.67242277	     97.35284317	    -14.64357928	     39.44141688	     89.56758512	     74.88238266
      0.97083330	    -13.32596427	     -0.32800826	      0.21831834	     -0.18976766	      1.21604507	     -0.07382878	     17.52904887	     -3.00582498	     -7.33196714	      5.54409874	      0.09676278	    -12.89027142	      0.65288729	     -7.49999987	     16.33869316	     -4.00394811	     -4.09692897	      4.41826118	      0.07711320	    -16.81061700	      9.83379741	     -7.49999987	     -4.57051679	     -0.79865083	     -4.37864439	     97.42651987	    -19.75916900	     36.94217105	     94.51705915	     86.92033590	     96.72231103	    -14.92003041	     39.36807821	     89.58855785	     78.01646529
      0.97500000	    -13.10490944	     -0.48892176	      0.10790404	     -0.18960199	      1.20514719	     -0.07433985	     18.51679611	     -2.87011556	     -7.61312434	      6.09853082	      0.10643944	    -13.06469254	     -0.22756274	     -7.49999987	     16.50579666	     -4.23564471	     -4.80045184	      3.49390741	      0.06098019	    -17.59123344	      9.82514249	     -7.49999987	     -4.98143081	     -0.81264974	     -4.66389710	     97.03481663	    -19.76924294	     36.94137592	     94.39210384	     86.82301274	     96.44509458	    -15.08430084	     39.60930358	     89.22035479	     78.01590826
      0.97916670	    -12.88371090	     -0.60876795	      0.00600342	     -0.17980329	      1.20210759	     -0.07478773	     18.86895077	     -2.74390470	     -7.92049967	      6.11692849	      0.10676054	    -13.90940791	     -0.90943623	     -7.49999987	     16.65344868	     -4.40425258	     -4.74418516	      2.81018250	      0.04904694	    -18.68677620	      9.73754981	     -7.49999987	     -5.46518254	     -0.89868164	     -4.70952135	     96.43476858	    -19.49030751	     36.22752632	     95.29048976	     85.08125178	     96.16727394	    -14.90187051	     39.64301617	     89.27967525	     76.90274316
      0.98333330	    -13.01408599	     -0.82407156	     -0.14414803	     -0.17892779	      1.19496026	     -0.07457962	     19.59714697	     -2.59007441	     -8.34776983	      5.82322217	      0.10163440	    -14.97737482	     -1.45434398	     -7.49999987	     17.46094996	     -4.71338361	     -4.57013144	      2.87111414	      0.05011039	    -19.60588378	      9.27028961	     -7.49999987	     -5.94824744	     -0.79658333	     -4.18870513	     96.54134998	    -19.68815457	     35.80048808	     96.30030453	     84.77236811	     96.64027094	    -14.07817796	     39.53363081	     89.39901255	     76.71090230
      0.98750000	    -13.23445276	     -0.97868694	     -0.25207935	     -0.17807660	      1.19099420	     -0.07439534	     20.31814163	     -2.56978872	     -9.51869231	      4.53186120	      0.07909590	    -15.94275537	     -1.71758417	     -7.49999987	     18.51182595	     -4.74362894	     -3.76978622	      2.78268999	      0.04856710	    -20.17915290	     10.28870959	     -7.49999987	     -6.38283053	     -0.82776840	     -3.92229564	     95.65134983	    -21.20533154	     35.37474706	     98.84415195	     88.23288795	     97.46186724	    -14.03065370	     39.97410577	     88.98087987	     78.95991784
      0.99166670	    -13.27761539	     -1.10372496	     -0.29905607	     -0.17216344	      1.18102404	     -0.07016577	     20.40780883	     -2.32257377	    -10.20091957	      3.39413108	      0.05923876	    -17.50375700	     -2.20473445	     -7.49999987	     19.52581659	     -4.95918038	     -3.19641414	      2.96601506	      0.05176673	    -20.63324786	     10.95890292	     -7.49999987	     -6.89699356	     -0.92174858	     -3.54893367	     95.23007254	    -22.96098515	     35.64873477	    100.13465351	     87.24639951	     98.37484958	    -14.13770334	     40.71214599	     88.02835553	     78.14713177
      0.99583330	    -13.41414838	     -1.07086786	     -0.02316924	     -0.16667948	      1.17402136	     -0.07458224	     20.54076975	     -2.53609578	    -11.02630160	      2.31934448	      0.04048020	    -17.39268563	     -2.21873583	     -7.49999987	     20.61804168	     -4.83908981	     -3.89460940	      3.64474578	      0.06361281	    -20.13708164	     10.74625607	     -7.49999987	     -7.08690322	     -1.00128637	     -3.58298935	     95.09782878	    -24.50009109	     36.00601631	    100.25068124	     88.32760692	     98.55691285	    -14.21511055	     41.03372878	     87.37953370	     78.53811316
      1.00000000	    -13.40041991	     -1.14501864	      0.11121812	     -0.16626716	      1.17012495	     -0.07508724	     20.71776099	     -2.43064879	    -11.48539654	      1.66483680	      0.02905688	    -17.14219590	     -1.40812898	     -7.49999987	     21.64649229	     -4.89904599	     -4.59383656	      4.56853568	      0.07973599	    -19.27504524	     10.57533604	     -7.49999987	     -7.51573068	     -0.93564942	     -3.66979671	     94.03638630	    -25.67863661	     35.42784481	    100.78195488	     87.17392439	     98.44448791	    -14.46824896	     41.89135645	     86.89947560	     77.66702729
      1.00416670	    -13.30313591	     -1.18049447	      0.19817553	     -0.16076408	      1.16643520	     -0.07959470	     20.90724673	     -2.43426372	    -11.51861147	      1.53816969	      0.02684613	    -17.39253623	     -0.65309661	     -7.49999987	     22.32220050	     -4.96816135	     -5.10693276	      5.29410260	      0.09239952	    -19.00677187	     11.15412445	     -7.49999987	     -7.80630644	     -0.92277876	     -3.46022322	     92.71728477	    -26.97424544	     34.90043872	    101.42018212	     85.29865558	     97.34214177	    -14.14861970	     41.64732863	     87.65665016	     76.42634188
      1.00833330	    -13.31180322	     -1.26787421	      0.12868185	     -0.15968156	      1.16105196	     -0.07967222	     21.82261833	     -2.52203285	    -11.58396558	      1.96029611	      0.03421362	    -18.58852160	      0.07293539	     -7.49999987	     23.01169242	     -5.06796149	     -5.39160354	      5.22734292	      0.09123435	    -19.16383560	     12.28146128	     -7.49999987	     -8.13285345	     -0.76014559	     -3.34352285	     91.79914798	    -27.45423803	     34.89438707	    101.93057630	     85.70440569	     96.41653064	    -14.22792649	     42.06787870	     88.68235638	     76.78791561
      1.01250000	    -13.07199264	     -1.28528827	      0.40208253	     -0.15394296	      1.15354920	     -0.07550088	     22.55446947	     -2.70968441	    -11.76444108	      2.49447349	      0.04353678	    -18.97168558	     -0.33685059	     -7.49999987	     23.41296264	     -5.21154336	     -4.95820892	      5.05434574	      0.08821497	    -19.31969001	     12.75506100	     -7.49999987	     -8.58645658	     -0.90007257	     -3.42844944	     90.69449437	    -27.88331200	     35.48853367	    102.33242444	     83.14845316	     95.77941546	    -14.62328265	     42.56011728	     89.94671772	     75.17512400
      1.01666670	    -12.92419552	     -1.26048086	      0.47601674	     -0.14822028	      1.13942870	     -0.08005360	     23.48067293	     -2.91741053	    -11.71511785	      2.98970228	      0.05218015	    -18.95012988	     -0.09558696	     -7.49999987	     24.13669597	     -5.17031808	     -4.44423684	      5.36428805	      0.09362449	    -18.35831905	     12.23390719	     -7.49999987	     -8.76250896	     -0.80035370	     -3.35354607	     90.41115204	    -28.86182902	     36.23895290	    102.49674540	     83.36409641	     95.79365470	    -14.77297037	     43.81301946	     89.75071050	     75.25671303
